<?xml version="1.0" encoding="iso-8859-1"?>
<!-- Generator: Adobe Illustrator 18.0.0, SVG Export Plug-In . SVG Version: 6.00 Build 0)  -->
<!DOCTYPE svg PUBLIC "-//W3C//DTD SVG 1.1//EN" "http://www.w3.org/Graphics/SVG/1.1/DTD/svg11.dtd">
<svg version="1.1" id="Capa_1" xmlns="http://www.w3.org/2000/svg" xmlns:xlink="http://www.w3.org/1999/xlink" x="0px" y="0px"
	 viewBox="0 0 441.269 441.269" style="enable-background:new 0 0 441.269 441.269;" xml:space="preserve">
<path d="M437.306,214.65l-53.562-22.708c-2.441-1.035-5.261-0.484-7.134,1.388l-20.803,20.804h-81.826
	c-0.83-39.092-9.143-76.934-24.766-112.573c-6.091-13.896-13.184-27.202-21.226-39.879l3.268-23.898
	c0.486-3.557-2.003-6.834-5.56-7.321c-3.563-0.488-6.834,2.003-7.321,5.559l-1.318,9.637c-10.488-14.347-22.282-27.784-35.352-40.21
	c-2.602-2.474-6.716-2.37-9.189,0.232c-2.473,2.602-2.37,6.716,0.232,9.189c4.979,4.733,9.759,9.624,14.351,14.656l-41.485,184.607
	H89.82l-13.054-18.041c-1.039-1.436-2.619-2.385-4.375-2.628l-65-9c-2.395-0.334-4.774,0.693-6.18,2.659
	c-1.405,1.966-1.604,4.55-0.515,6.708l13.523,26.803L0.697,247.437c-1.089,2.158-0.89,4.741,0.515,6.708
	c1.23,1.721,3.208,2.72,5.287,2.72c0.296,0,0.594-0.02,0.893-0.062l65-9c1.755-0.243,3.335-1.192,4.375-2.628l13.054-18.041h55.795
	l41.485,184.606c-4.592,5.032-9.373,9.923-14.352,14.657c-2.602,2.474-2.706,6.588-0.232,9.189c1.278,1.344,2.993,2.021,4.712,2.021
	c1.608,0,3.22-0.594,4.478-1.789c28.157-26.769,50.437-58.198,66.295-93.434l19.163-7.421c3.348-1.296,5.01-5.061,3.714-8.408
	c-1.297-3.347-5.06-5.012-8.409-3.714l-7.562,2.929c11.957-31.512,18.352-64.6,19.075-98.636h81.826l20.803,20.804
	c1.244,1.244,2.907,1.904,4.599,1.904c0.854,0,1.717-0.169,2.535-0.516l53.562-22.708c2.402-1.019,3.963-3.375,3.963-5.984
	S439.708,215.669,437.306,214.65z M197.668,41.795c16.058,19.742,29.341,41.488,39.642,64.986c1.042,2.377,2.045,4.765,3.019,7.162
	l-8.767-1.451c-3.544-0.587-6.888,1.81-7.475,5.351c-0.586,3.542,1.81,6.888,5.352,7.474l16.166,2.676
	c9.563,27.656,14.719,56.52,15.377,86.142H158.939L197.668,41.795z M67.86,205.962l5.914,8.173H25.501l-7.614-15.092L67.86,205.962z
	 M67.86,235.307l-49.974,6.919l7.614-15.092h48.273L67.86,235.307z M252.425,290.406l-4.009-6.803
	c-1.822-3.093-5.808-4.121-8.899-2.3c-3.093,1.823-4.123,5.807-2.3,8.9l10.274,17.432c-2.927,9.081-6.317,18.038-10.181,26.852
	c-10.301,23.498-23.584,45.243-39.642,64.985L158.94,227.134h102.042C260.503,248.685,257.631,269.831,252.425,290.406z
	 M382.704,235.647l-15.012-15.013l15.012-15.013l35.411,15.013L382.704,235.647z"/>
<g>
</g>
<g>
</g>
<g>
</g>
<g>
</g>
<g>
</g>
<g>
</g>
<g>
</g>
<g>
</g>
<g>
</g>
<g>
</g>
<g>
</g>
<g>
</g>
<g>
</g>
<g>
</g>
<g>
</g>
</svg>
