<?xml version="1.0" encoding="iso-8859-1"?>
<!-- Generator: Adobe Illustrator 18.0.0, SVG Export Plug-In . SVG Version: 6.00 Build 0)  -->
<!DOCTYPE svg PUBLIC "-//W3C//DTD SVG 1.1//EN" "http://www.w3.org/Graphics/SVG/1.1/DTD/svg11.dtd">
<svg version="1.1" id="Capa_1" xmlns="http://www.w3.org/2000/svg" xmlns:xlink="http://www.w3.org/1999/xlink" x="0px" y="0px"
	 viewBox="0 0 433.948 433.948" style="enable-background:new 0 0 433.948 433.948;" xml:space="preserve">
<g>
	<path style="fill:#F15A24;" d="M183.637,411.349l-43.36-192.95c-0.211-0.938-0.211-1.912,0-2.851l43.36-192.95l12.684,2.85
		l-43.04,191.525l43.04,191.525L183.637,411.349z"/>
	<path style="fill:#B2863F;" d="M368.794,223.474H45.716c-4.264,0-7.721-2.91-7.721-6.5s3.457-6.5,7.721-6.5h323.077
		c4.264,0,7.721,2.91,7.721,6.5S373.058,223.474,368.794,223.474z"/>
	<path style="fill:#EDC148;" d="M258.271,319.182l-7.562,2.929c12.717-33.515,19.157-68.81,19.157-105.136
		c0-41.399-8.36-81.461-24.849-119.073c-6.091-13.896-13.184-27.202-21.226-39.879l3.268-23.898c0.486-3.557-2.003-6.834-5.56-7.321
		c-3.563-0.488-6.834,2.003-7.321,5.559l-1.318,9.637c-10.488-14.347-22.282-27.784-35.352-40.21
		c-2.602-2.474-6.716-2.37-9.189,0.232c-2.473,2.602-2.37,6.716,0.232,9.189c27.611,26.25,49.333,57.173,64.561,91.909
		c1.042,2.377,2.045,4.765,3.019,7.162l-8.767-1.451c-3.544-0.587-6.888,1.81-7.475,5.351c-0.586,3.542,1.81,6.888,5.352,7.474
		l16.166,2.676c10.262,29.676,15.459,60.74,15.459,92.642c0,23.801-2.91,47.132-8.638,69.772l-4.009-6.803
		c-1.822-3.093-5.808-4.121-8.899-2.3c-3.093,1.823-4.123,5.807-2.3,8.9l10.274,17.432c-2.927,9.081-6.317,18.038-10.181,26.852
		c-15.228,34.736-36.949,65.659-64.561,91.909c-2.602,2.474-2.706,6.588-0.232,9.189c1.278,1.344,2.993,2.021,4.712,2.021
		c1.608,0,3.22-0.594,4.478-1.789c28.157-26.769,50.437-58.198,66.295-93.434l19.163-7.421c3.348-1.296,5.01-5.061,3.714-8.408
		C265.384,319.549,261.621,317.884,258.271,319.182z"/>
	<polygon style="fill:#CCCCCC;" points="431.646,216.974 378.084,239.682 355.377,216.974 378.084,194.267 	"/>
	<polygon style="fill:#F15A24;" points="2.302,187.243 67.302,196.243 82.302,216.974 17.302,216.974 	"/>
	<polygon style="fill:#D34A20;" points="2.302,246.705 67.302,237.705 82.302,216.974 17.302,216.974 	"/>
	<polygon style="fill:#B3B3B3;" points="355.377,216.974 431.646,216.974 378.084,239.682 	"/>
</g>
<g>
</g>
<g>
</g>
<g>
</g>
<g>
</g>
<g>
</g>
<g>
</g>
<g>
</g>
<g>
</g>
<g>
</g>
<g>
</g>
<g>
</g>
<g>
</g>
<g>
</g>
<g>
</g>
<g>
</g>
</svg>
