<?xml version="1.0" encoding="iso-8859-1"?>
<!-- Generator: Adobe Illustrator 18.0.0, SVG Export Plug-In . SVG Version: 6.00 Build 0)  -->
<!DOCTYPE svg PUBLIC "-//W3C//DTD SVG 1.1//EN" "http://www.w3.org/Graphics/SVG/1.1/DTD/svg11.dtd">
<svg version="1.1" id="Capa_1" xmlns="http://www.w3.org/2000/svg" xmlns:xlink="http://www.w3.org/1999/xlink" x="0px" y="0px"
	 viewBox="0 0 460.745 460.745" style="enable-background:new 0 0 460.745 460.745;" xml:space="preserve">
<g>
	<path d="M241.72,94.262h-22.694c-3.59,0-6.5,2.91-6.5,6.5s2.91,6.5,6.5,6.5h22.694c3.59,0,6.5-2.91,6.5-6.5
		S245.31,94.262,241.72,94.262z"/>
	<path d="M197.782,76.82c0,3.59,2.91,6.5,6.5,6.5s6.5-2.91,6.5-6.5v-2.518h13.091v8.627c0,3.59,2.91,6.5,6.5,6.5s6.5-2.91,6.5-6.5
		v-8.627h13.09v2.518c0,3.59,2.91,6.5,6.5,6.5s6.5-2.91,6.5-6.5v-2.518h6.744c3.59,0,6.5-2.91,6.5-6.5s-2.91-6.5-6.5-6.5h-78.669
		c-3.59,0-6.5,2.91-6.5,6.5s2.91,6.5,6.5,6.5h6.744V76.82z"/>
	<path d="M289.072,101.891c1.203-4.593,1.836-9.382,1.836-14.271V60.535C290.908,27.156,263.752,0,230.373,0
		s-60.535,27.156-60.535,60.535V87.62c0,4.888,0.633,9.677,1.836,14.271c-23.69,18.673-37.706,47.363-37.706,77.686v142.107
		c0,13.451,7.236,25.591,18.741,32.065v25.499c0,3.198,2.326,5.921,5.485,6.42l9.651,1.526v38.785
		c-5.207,1.197-9.988,3.833-13.86,7.705c-5.442,5.429-8.439,12.664-8.439,20.372v0.19c0,3.59,2.91,6.5,6.5,6.5h56.99
		c3.59,0,6.5-2.91,6.5-6.5v-59.513l29.674,4.691v54.822c0,3.59,2.91,6.5,6.5,6.5h56.989c3.59,0,6.5-2.91,6.5-6.5v-0.19
		c0-7.709-2.997-14.944-8.433-20.366c-3.877-3.876-8.659-6.513-13.867-7.71v-19.017l7.623,1.205c0.338,0.053,0.677,0.08,1.015,0.08
		c1.537,0,3.037-0.545,4.222-1.558c1.446-1.235,2.278-3.041,2.278-4.942v-47.999c11.505-6.474,18.74-18.614,18.74-32.064V179.577
		C326.777,149.254,312.761,120.564,289.072,101.891z M182.838,87.62V60.535c0-2.698,0.238-5.341,0.672-7.918
		c2.502,0.712,5.498,1.393,8.795,1.791c2.022,0.244,4.004,0.365,5.938,0.365c10.123,0,18.972-3.319,25.843-9.75
		c2.577-2.412,4.632-5.285,6.277-8.359c1.645,3.074,3.701,5.947,6.278,8.359c6.871,6.431,15.718,9.75,25.842,9.75
		c1.935,0,3.917-0.121,5.939-0.365c3.305-0.398,6.308-1.082,8.813-1.796c0.435,2.578,0.673,5.223,0.673,7.923V87.62
		c0,17.176-10.154,32.755-25.87,39.689l-16.58,7.314c-3.232,1.426-6.939,1.426-10.17,0l-16.58-7.314
		C192.992,120.375,182.838,104.797,182.838,87.62z M273.327,40.195c-7.031,1.931-19.084,3.497-27.802-4.662
		c-5.446-5.098-7.618-14.863-8.349-22.038C253.174,15.798,266.621,26.092,273.327,40.195z M223.551,13.497
		c-0.731,7.175-2.903,16.938-8.348,22.035c-8.715,8.156-20.76,6.596-27.786,4.669C194.118,26.101,207.558,15.806,223.551,13.497z
		 M146.968,179.577c0-25.03,10.991-48.782,29.744-65c5.842,10.723,15.121,19.496,26.748,24.626l16.58,7.314
		c3.284,1.449,6.808,2.173,10.333,2.173c3.524,0,7.05-0.725,10.333-2.173l16.58-7.314c11.626-5.129,20.905-13.902,26.747-24.624
		c1.896,1.64,3.712,3.357,5.447,5.145c-25.943,44.991-78.127,61.898-98.501,66.945l0.953-9.02c0.377-3.57-2.211-6.77-5.78-7.147
		c-3.573-0.382-6.771,2.21-7.147,5.781l-13,123c-0.104,0.976,0.016,1.962,0.348,2.885l5.868,16.298h-2.752c-3.59,0-6.5,2.91-6.5,6.5
		v17.896c0,0.327-0.138,0.585-0.409,0.767c-0.271,0.181-0.562,0.211-0.864,0.085c-8.946-3.702-14.727-12.349-14.727-22.03V179.577z
		 M202.536,447.745h-42.688c0.78-1.794,1.898-3.441,3.325-4.864c2.989-2.99,6.957-4.636,11.173-4.636c3.59,0,6.5-2.91,6.5-6.5
		v-42.496l21.69,3.429V447.745z M286.399,438.245c4.216,0,8.185,1.646,11.18,4.642c1.423,1.419,2.54,3.065,3.319,4.858H258.21
		v-46.267l21.689,3.429v26.838C279.899,435.335,282.81,438.245,286.399,438.245z M165.709,373.694v-17.407
		c1.428-0.39,2.806-1.004,4.073-1.851c3.873-2.589,6.186-6.916,6.186-11.575v-11.396h5.5c2.117,0,4.101-1.031,5.318-2.762
		c1.217-1.732,1.515-3.948,0.798-5.939l-8.495-23.598l10.441-98.789c7.648-1.641,23.3-5.635,41.229-13.819
		c29.599-13.511,52.733-32.825,67.49-56.212c9.389,13.439,14.872,29.452,15.473,46.156l-38.879,31.184
		c-1.729,1.387-2.632,3.56-2.396,5.765l9.207,85.722l-8.493,23.592c-0.717,1.992-0.419,4.208,0.798,5.939
		c1.218,1.731,3.202,2.762,5.318,2.762h5.5v11.396c0,4.659,2.313,8.985,6.185,11.574c1.268,0.847,2.646,1.461,4.075,1.851v37.851
		L165.709,373.694z M313.777,321.684c0,9.681-5.78,18.328-14.726,22.03c-0.302,0.125-0.593,0.097-0.865-0.085
		c-0.271-0.182-0.409-0.439-0.409-0.767v-17.896c0-3.59-2.91-6.5-6.5-6.5h-2.752l5.868-16.298c0.333-0.927,0.452-1.917,0.347-2.896
		l-8.987-83.671l28.024-22.478V321.684z"/>
	<path d="M252.956,211.465c-3.59,0-6.5,2.91-6.5,6.5v13.333c0,3.59,2.91,6.5,6.5,6.5s6.5-2.91,6.5-6.5v-13.333
		C259.456,214.375,256.546,211.465,252.956,211.465z"/>
	<path d="M288.289,185.132c3.59,0,6.5-2.91,6.5-6.5v-13.333c0-3.59-2.91-6.5-6.5-6.5s-6.5,2.91-6.5,6.5v13.333
		C281.789,182.222,284.699,185.132,288.289,185.132z"/>
	<path d="M214.289,252.798c-3.59,0-6.5,2.91-6.5,6.5v13.333c0,3.59,2.91,6.5,6.5,6.5s6.5-2.91,6.5-6.5v-13.333
		C220.789,255.708,217.879,252.798,214.289,252.798z"/>
	<path d="M199.622,207.465c-3.59,0-6.5,2.91-6.5,6.5v13.333c0,3.59,2.91,6.5,6.5,6.5s6.5-2.91,6.5-6.5v-13.333
		C206.122,210.375,203.212,207.465,199.622,207.465z"/>
	<path d="M252.956,277.465c-3.59,0-6.5,2.91-6.5,6.5v13.333c0,3.59,2.91,6.5,6.5,6.5s6.5-2.91,6.5-6.5v-13.333
		C259.456,280.375,256.546,277.465,252.956,277.465z"/>
	<path d="M213.622,336.132c-3.59,0-6.5,2.91-6.5,6.5v13.333c0,3.59,2.91,6.5,6.5,6.5s6.5-2.91,6.5-6.5v-13.333
		C220.122,339.042,217.212,336.132,213.622,336.132z"/>
	<path d="M266.289,353.465c-3.59,0-6.5,2.91-6.5,6.5v13.333c0,3.59,2.91,6.5,6.5,6.5s6.5-2.91,6.5-6.5v-13.333
		C272.789,356.375,269.879,353.465,266.289,353.465z"/>
</g>
<g>
</g>
<g>
</g>
<g>
</g>
<g>
</g>
<g>
</g>
<g>
</g>
<g>
</g>
<g>
</g>
<g>
</g>
<g>
</g>
<g>
</g>
<g>
</g>
<g>
</g>
<g>
</g>
<g>
</g>
</svg>
