<?xml version="1.0" encoding="iso-8859-1"?>
<!-- Generator: Adobe Illustrator 18.0.0, SVG Export Plug-In . SVG Version: 6.00 Build 0)  -->
<!DOCTYPE svg PUBLIC "-//W3C//DTD SVG 1.1//EN" "http://www.w3.org/Graphics/SVG/1.1/DTD/svg11.dtd">
<svg version="1.1" id="Capa_1" xmlns="http://www.w3.org/2000/svg" xmlns:xlink="http://www.w3.org/1999/xlink" x="0px" y="0px"
	 viewBox="0 0 466 466" style="enable-background:new 0 0 466 466;" xml:space="preserve">
<path d="M287.449,375.299l-13.274-13.275v-36.95l13.275-13.276c3.032-3.032,4.702-7.063,4.702-11.351
	c0-4.288-1.67-8.319-4.702-11.351c-3.619-3.619-8.549-5.132-13.275-4.565V164.211c0-0.382-0.034-0.764-0.101-1.14L253.94,50.101
	c-0.252-1.413-0.965-2.704-2.027-3.669L202.699,1.691c-1.902-1.731-4.65-2.176-7.002-1.135c-2.353,1.041-3.87,3.372-3.87,5.944
	v278.021c-0.635-0.076-1.274-0.127-1.923-0.127c-4.271,0-8.298,1.664-11.352,4.7c-3.035,3.035-4.707,7.066-4.707,11.352
	c0,4.286,1.672,8.318,4.707,11.352l13.274,13.279v36.943l-13.276,13.276c-3.032,3.032-4.702,7.063-4.702,11.351
	c0,4.288,1.67,8.319,4.702,11.351c3.129,3.13,7.239,4.694,11.351,4.694c0.644,0,1.286-0.052,1.926-0.129V459.5
	c0,3.59,2.91,6.5,6.5,6.5h69.348c3.59,0,6.5-2.91,6.5-6.5v-56.923c0.634,0.075,1.274,0.126,1.923,0.126
	c4.289,0,8.32-1.669,11.353-4.7c3.037-3.038,4.708-7.075,4.705-11.368C292.151,382.347,290.478,378.319,287.449,375.299z
	 M261.174,349.024l-5.475-5.475l5.475-5.475V349.024z M232.995,366.254l28.179,28.178V427h-56.348v-32.577L232.995,366.254z
	 M261.174,164.786v127.887l-3.802,3.802h-14.64L239.5,128.294c-0.007-0.338-0.04-0.675-0.099-1.009l-9.508-53.689
	c-0.067-0.38-0.168-0.753-0.302-1.116l-15.966-43.288l27.905,25.369L261.174,164.786z M233.004,320.843l-11.368-11.368h22.737
	L233.004,320.843z M217.194,76.435l9.317,52.617l3.218,167.423h-21.094l-3.809-3.809V42.906L217.194,76.435z M186.845,300.447
	c0-0.471,0.117-1.378,0.885-2.146c0.588-0.584,1.36-0.906,2.174-0.906c0.472,0,1.38,0.118,2.16,0.893l31.748,31.748l-4.324,4.324
	l-31.744-31.753C186.963,301.825,186.845,300.918,186.845,300.447z M204.827,338.082l5.469,5.47l-5.469,5.468V338.082z
	 M187.742,388.805c-0.777-0.778-0.894-1.686-0.894-2.158s0.116-1.38,0.895-2.158l86.198-86.199h0.001
	c0.595-0.595,1.376-0.893,2.157-0.893c0.782,0,1.563,0.298,2.159,0.893c0.777,0.778,0.894,1.686,0.894,2.158
	s-0.116,1.38-0.895,2.158l-86.198,86.199C190.868,389.997,188.933,389.995,187.742,388.805z M204.827,453v-13h56.348v13H204.827z
	 M278.257,388.811c-0.738,0.738-1.582,0.893-2.16,0.893c-0.474,0-1.383-0.116-2.16-0.893l-31.749-31.749l4.319-4.319l31.756,31.756
	c0.774,0.772,0.891,1.676,0.892,2.146C279.155,387.118,279.039,388.029,278.257,388.811z"/>
<g>
</g>
<g>
</g>
<g>
</g>
<g>
</g>
<g>
</g>
<g>
</g>
<g>
</g>
<g>
</g>
<g>
</g>
<g>
</g>
<g>
</g>
<g>
</g>
<g>
</g>
<g>
</g>
<g>
</g>
</svg>
