<?xml version="1.0" encoding="iso-8859-1"?>
<!-- Generator: Adobe Illustrator 18.0.0, SVG Export Plug-In . SVG Version: 6.00 Build 0)  -->
<!DOCTYPE svg PUBLIC "-//W3C//DTD SVG 1.1//EN" "http://www.w3.org/Graphics/SVG/1.1/DTD/svg11.dtd">
<svg version="1.1" id="Capa_1" xmlns="http://www.w3.org/2000/svg" xmlns:xlink="http://www.w3.org/1999/xlink" x="0px" y="0px"
	 viewBox="0 0 425.199 425.199" style="enable-background:new 0 0 425.199 425.199;" xml:space="preserve">
<path d="M360.312,196.412L360.312,196.412c-2.958-4.402-6.86-7.909-11.32-10.347c3.753-15.527,5.663-30.31,5.663-44.015
	C354.655,63.724,290.927,0,212.595,0c-78.326,0-142.05,63.724-142.05,142.05c0,13.705,1.91,28.488,5.663,44.015
	c-4.461,2.437-8.363,5.944-11.321,10.346v0c-20.669,30.761-23.823,70.062-8.035,100.124c1.225,2.332,3.63,3.746,6.195,3.746
	c0.425,0,0.855-0.039,1.285-0.119c3.019-0.563,5.318-3.028,5.671-6.079c2.402-20.809,13.354-37.92,29.661-46.802
	c2.774,5.194,5.719,10.253,8.792,15.156c-1.842,2.401-3.407,5.052-4.615,7.932c-16.095,38.347-11.066,82.289,12.812,111.947
	c1.357,1.687,3.379,2.611,5.454,2.611c0.867,0,1.744-0.162,2.585-0.496c2.854-1.135,4.635-3.998,4.391-7.059
	c-2.047-25.767,8.018-48.915,26.959-62.196c7.568,5.433,15.335,9.792,23.19,13.014c3.245,34.998,12.914,68.158,27.282,93.464
	c1.243,2.19,3.568,3.544,6.087,3.544s4.844-1.354,6.087-3.544c14.369-25.307,24.037-58.467,27.281-93.465
	c7.841-3.217,15.607-7.577,23.189-13.015c18.941,13.281,29.007,36.429,26.96,62.196c-0.244,3.062,1.537,5.924,4.391,7.059
	c0.841,0.334,1.718,0.496,2.585,0.496c2.074,0,4.097-0.924,5.454-2.611c23.879-29.658,28.907-73.6,12.812-111.947
	c-1.208-2.879-2.773-5.53-4.615-7.931c3.073-4.902,6.018-9.962,8.793-15.156c16.307,8.881,27.259,25.993,29.661,46.801
	c0.353,3.051,2.652,5.516,5.671,6.079c0.43,0.08,0.859,0.119,1.285,0.119c2.564,0,4.971-1.414,6.195-3.746
	C384.135,266.475,380.981,227.173,360.312,196.412z M62.167,269.357c-3.958-21.453,1.002-45.286,14.341-65.138v0
	c3.87-5.762,10.288-8.742,17.172-7.968c6.837,0.768,12.397,5.063,14.874,11.487l0.54,1.399c3.479,9.021-0.939,19.09-10.06,22.924
	C82.354,239.075,69.456,252.363,62.167,269.357z M116.221,354.72c-10.338-23.706-10.464-52.742,0.528-78.933
	c3.175-7.562,9.938-12.479,18.091-13.153c8.092-0.673,15.53,3.042,19.873,9.934l0.9,1.429c6.097,9.675,3.275,22.365-6.424,28.89
	C131.597,314.723,120.051,333.234,116.221,354.72z M232.121,325.979c-2.508,28.115-9.348,54.899-19.521,76.889
	c-10.173-21.989-17.013-48.773-19.521-76.889c-0.493-5.53,1.301-10.834,5.053-14.936c3.76-4.11,8.898-6.374,14.469-6.374
	c5.569,0,10.708,2.264,14.468,6.374C230.82,315.144,232.614,320.448,232.121,325.979z M212.6,290.669
	c-9.409,0-18.447,3.982-24.799,10.925c-3.189,3.486-5.572,7.582-7.048,11.981c-4.823-2.248-9.619-5.005-14.356-8.243
	c7.967-11.296,8.82-26.488,1.062-38.798l-0.904-1.435c-7.068-11.217-19.646-17.516-32.867-16.417
	c-5.221,0.431-10.152,1.997-14.536,4.469c-2.505-4.081-4.906-8.283-7.194-12.573c10.885-8.475,15.359-23.099,10.2-36.478
	l-0.539-1.397c-4.326-11.22-14.433-19.023-26.375-20.364c-1.871-0.21-3.73-0.237-5.567-0.127
	c-3.365-14.144-5.131-27.917-5.131-40.162C84.545,71.443,141.989,14,212.595,14c70.612,0,128.06,57.443,128.06,128.05
	c0,12.245-1.766,26.017-5.131,40.162c-1.836-0.11-3.696-0.083-5.567,0.127c-11.942,1.34-22.049,9.144-26.377,20.366l-0.538,1.396
	c-5.159,13.378-0.684,28.003,10.2,36.478c-2.288,4.29-4.689,8.492-7.194,12.573c-4.384-2.473-9.314-4.038-14.536-4.47
	c-13.219-1.094-25.8,5.2-32.871,16.421l-0.9,1.43c-7.757,12.31-6.904,27.501,1.06,38.796c-4.744,3.24-9.54,5.998-14.356,8.245
	c-1.477-4.399-3.859-8.494-7.048-11.98C231.047,294.651,222.008,290.669,212.6,290.669z M308.978,354.721
	c-3.83-21.486-15.376-39.999-32.969-51.834c-9.698-6.525-12.52-19.215-6.428-28.883l0.907-1.441
	c4.005-6.355,10.639-10.006,18.006-10.006c0.617,0,1.239,0.025,1.865,0.077c8.153,0.674,14.916,5.591,18.089,13.153
	c0.001,0,0.001,0,0.001,0C319.444,301.98,319.319,331.014,308.978,354.721z M363.032,269.358
	c-7.288-16.995-20.187-30.283-36.867-37.296c-9.119-3.833-13.538-13.903-10.06-22.923l0.539-1.398
	c2.479-6.427,8.039-10.722,14.875-11.489c0.719-0.081,1.432-0.121,2.138-0.121c6.056,0,11.567,2.928,15.034,8.089v0
	C362.03,224.072,366.99,247.906,363.032,269.358z"/>
<g>
</g>
<g>
</g>
<g>
</g>
<g>
</g>
<g>
</g>
<g>
</g>
<g>
</g>
<g>
</g>
<g>
</g>
<g>
</g>
<g>
</g>
<g>
</g>
<g>
</g>
<g>
</g>
<g>
</g>
</svg>
