<?xml version="1.0" encoding="iso-8859-1"?>
<!-- Generator: Adobe Illustrator 19.0.0, SVG Export Plug-In . SVG Version: 6.00 Build 0)  -->
<svg version="1.1" id="Layer_1" xmlns="http://www.w3.org/2000/svg" xmlns:xlink="http://www.w3.org/1999/xlink" x="0px" y="0px"
	 viewBox="0 0 512 512" style="enable-background:new 0 0 512 512;" xml:space="preserve">
<polygon style="fill:#AAB2BC;" points="446.5,26 406,40 401,83 443,110.5 476,99 497,15.5 "/>
<polygon style="fill:#DA4453;" points="424,119 380,160 391,218 412,176.312 450,207 "/>
<polygon style="fill:#965353;" points="396,83 18.75,451.25 4.5,487.5 45,501 429,114 "/>
<path d="M481.844,105.594C502.656,84.766,512,0,512,0s-84.766,9.344-105.594,30.172c-12.328,12.328-17.359,29.203-15.078,45.25
	L274.75,192h-0.078v0.078L9.375,457.375c-12.5,12.5-12.5,32.75,0,45.25C15.625,508.875,23.812,512,32,512
	c8.203,0,16.391-3.125,22.625-9.375l157.797-157.781h0.922v-0.922l155.484-155.484c-0.375,26.969,1.844,51.844,10.234,53.797
	c0.375,0.078,0.734,0.125,1.109,0.125c8.609,0,21.422-21.547,32.719-45.562c15.766,20.766,32.672,39.359,41.688,39.359
	c0.828,0,1.594-0.156,2.281-0.484c14.766-7.016-9.672-89.938-19.406-114.891c2.219,0.281,4.438,0.438,6.672,0.438
	C457.766,121.219,471.422,116,481.844,105.594z M421.5,45.25c0.859-0.859,9.625-8.703,49.547-17.031
	c5.438-1.125,10.766-2.125,15.719-2.969c-0.844,4.844-1.812,10.062-2.922,15.406C475.5,80.844,467.625,89.641,466.75,90.5
	c-6.047,6.062-14.078,9.375-22.625,9.375S427.531,96.562,421.5,90.5C409.016,78.031,409.016,57.734,421.5,45.25z M406.406,105.594
	c2.594,2.594,5.375,4.844,8.297,6.781L296,231.094v-30.188L399.625,97.297C401.562,100.219,403.828,103.016,406.406,105.594z
	 M274.672,252.406L256,271.094v-30.188l18.672-18.656V252.406z M170.672,326.25L192,304.906v30.188l-21.328,21.312V326.25z
	 M149.344,377.75L128,399.094v-30.188l21.344-21.328V377.75z M39.547,487.531c-2.719,2.719-5.891,3.125-7.547,3.125
	c-1.641,0-4.812-0.406-7.531-3.125c-2.719-2.703-3.125-5.875-3.125-7.531s0.406-4.828,3.125-7.531l82.203-82.219v30.156
	L39.547,487.531z M213.344,283.578l21.328-21.328v30.156l-21.328,21.344V283.578z M397.625,178.906
	c-2.531,5.688-5.062,11.047-7.5,15.969c-0.016-5.5,0.109-11.422,0.359-17.656c0.141-3.75,0.328-7.422,0.547-11l0.188-0.172
	c2.25,3.453,4.703,7.078,7.281,10.828C398.219,177.562,397.922,178.219,397.625,178.906z M425.266,177.719
	c-7.219-9.844-13.672-19.375-18.625-27.094l13.906-13.906c3.219,9.328,7.469,22.953,11.344,37.844
	c1.562,6.031,2.938,11.812,4.094,17.172C432.547,187.438,428.953,182.734,425.266,177.719z"/>
<g>
</g>
<g>
</g>
<g>
</g>
<g>
</g>
<g>
</g>
<g>
</g>
<g>
</g>
<g>
</g>
<g>
</g>
<g>
</g>
<g>
</g>
<g>
</g>
<g>
</g>
<g>
</g>
<g>
</g>
</svg>
