<?xml version="1.0" encoding="iso-8859-1"?>
<!-- Generator: Adobe Illustrator 19.0.0, SVG Export Plug-In . SVG Version: 6.00 Build 0)  -->
<svg version="1.1" id="Layer_1" xmlns="http://www.w3.org/2000/svg" xmlns:xlink="http://www.w3.org/1999/xlink" x="0px" y="0px"
	 viewBox="0 0 512 512" style="enable-background:new 0 0 512 512;" xml:space="preserve">
<g>
	<g>
		<path d="M481.844,105.594C502.656,84.766,512,0,512,0s-84.766,9.344-105.594,30.172c-12.328,12.336-17.359,29.211-15.078,45.25
			L274.75,192h-0.078v0.078L9.375,457.375c-12.5,12.5-12.5,32.75,0,45.25C15.625,508.875,23.812,512,32,512
			c8.203,0,16.391-3.125,22.625-9.375l157.797-157.781h0.922v-0.922L368.828,188.43c-0.375,26.969,1.844,51.844,10.234,53.805
			c0.375,0.086,0.734,0.125,1.109,0.125c8.609,0,21.422-21.555,32.719-45.562c15.766,20.766,32.672,39.352,41.688,39.352
			c0.828,0,1.594-0.156,2.281-0.477c14.766-7.023-9.672-89.938-19.406-114.891c2.219,0.281,4.438,0.438,6.672,0.438
			C457.766,121.219,471.422,116.008,481.844,105.594z M106.672,420.406l-67.125,67.125c-2.719,2.719-5.891,3.125-7.547,3.125
			c-1.641,0-4.812-0.406-7.531-3.125c-2.719-2.703-3.125-5.875-3.125-7.531s0.406-4.828,3.125-7.531l82.203-82.219V420.406z
			 M149.344,377.75L128,399.094v-30.188l21.344-21.328V377.75z M192,335.094l-21.328,21.312V326.25L192,304.906V335.094z
			 M234.672,292.406l-21.328,21.344v-30.172l21.328-21.328V292.406z M274.672,252.414L256,271.094v-30.18l18.672-18.664V252.414z
			 M296,231.086v-30.172L399.625,97.297c1.937,2.93,4.203,5.719,6.781,8.297c2.594,2.586,5.375,4.844,8.297,6.789L296,231.086z
			 M397.625,178.898c-2.531,5.688-5.062,11.055-7.5,15.969c-0.016-5.484,0.109-11.414,0.359-17.641c0.141-3.75,0.328-7.43,0.547-11
			l0.188-0.18c2.25,3.445,4.703,7.086,7.281,10.836C398.219,177.555,397.922,178.219,397.625,178.898z M425.266,177.719
			c-7.219-9.852-13.672-19.383-18.625-27.094l13.906-13.914c3.219,9.336,7.469,22.961,11.344,37.859
			c1.562,6.023,2.938,11.797,4.094,17.164C432.547,187.445,428.953,182.734,425.266,177.719z M421.5,90.509
			c-12.484-12.478-12.484-32.775,0-45.251c0.859-0.867,9.625-8.711,49.547-17.031c5.438-1.133,10.766-2.125,15.719-2.984
			c-0.844,4.852-1.812,10.062-2.922,15.414c-8.344,40.188-16.219,48.984-17.094,49.852c-6.047,6.047-14.078,9.375-22.625,9.375
			S427.531,96.556,421.5,90.509z"/>
	</g>
</g>
<g>
</g>
<g>
</g>
<g>
</g>
<g>
</g>
<g>
</g>
<g>
</g>
<g>
</g>
<g>
</g>
<g>
</g>
<g>
</g>
<g>
</g>
<g>
</g>
<g>
</g>
<g>
</g>
<g>
</g>
</svg>
