<?xml version="1.0" encoding="iso-8859-1"?>
<!-- Generator: Adobe Illustrator 18.0.0, SVG Export Plug-In . SVG Version: 6.00 Build 0)  -->
<!DOCTYPE svg PUBLIC "-//W3C//DTD SVG 1.1//EN" "http://www.w3.org/Graphics/SVG/1.1/DTD/svg11.dtd">
<svg version="1.1" id="Capa_1" xmlns="http://www.w3.org/2000/svg" xmlns:xlink="http://www.w3.org/1999/xlink" x="0px" y="0px"
	 viewBox="0 0 444.55 444.55" style="enable-background:new 0 0 444.55 444.55;" xml:space="preserve">
<g>
	<path d="M344.775,84.989l-24.027-34.317c-1.216-1.737-3.204-2.772-5.325-2.772h-46.41c0.73-7.456-2.442-15.091-8.993-19.707
		c-3.649-2.567-7.927-3.924-12.37-3.924c-6.984,0-13.557,3.407-17.583,9.115l-2.921,4.145l-1.564-31.354
		C225.409,2.717,222.554,0,219.09,0h-39c-3.59,0-6.5,2.91-6.5,6.5v26.673c-3.307-4.573-8.171-7.624-13.742-8.589
		c-5.658-0.979-11.36,0.303-16.054,3.611c-7.332,5.168-10.438,14.117-8.563,22.366l-32.289,11.356
		c-2.602,0.915-4.343,3.373-4.343,6.132v66c0,2.327,1.244,4.476,3.261,5.635l37.918,21.797l-1.173,1.665
		c-6.828,9.691-4.499,23.13,5.19,29.957c3.756,2.647,8.075,3.918,12.354,3.918c6.098,0,12.109-2.59,16.298-7.45l-12.823,248.144
		c-0.097,1.873,0.62,3.697,1.967,5.002c1.217,1.18,2.842,1.833,4.524,1.833c0.179,0,0.357-0.007,0.537-0.022l72.474-6
		c3.479-0.288,6.108-3.272,5.958-6.759l-3.082-71.25l13.514-35.136c0.361-0.939,0.499-1.948,0.404-2.949l-4-42
		c-0.247-2.587-2.01-4.779-4.485-5.573c-2.477-0.794-5.186-0.037-6.89,1.924l-2.061,2.37l-3.737-86.425
		c3.761,2.815,8.319,4.291,12.925,4.291c4.279,0,8.6-1.272,12.356-3.919l0,0c8.801-6.204,11.501-17.854,6.808-27.201h33.254
		c2.358,0,4.532-1.277,5.679-3.338l39.36-70.683C346.34,89.704,346.202,87.028,344.775,84.989z M228.214,110.648L263.278,60.9
		h40.779c-3.648,7-3.546,15.18,0.348,22.141c2.586,4.623,6.504,8.105,11.151,10.085l-1.417,0.69
		c-19.936,9.712-30.083,32.266-24.129,53.627l1.521,5.456h-33.536L228.214,110.648z M324.626,81.991
		c-3.734-0.057-7.053-2.036-8.876-5.296c-1.82-3.254-1.772-7.109,0.124-10.317l10.955,15.647L324.626,81.991z M302.135,142.367
		c-3.359-14.833,3.897-30.14,17.698-36.863l3.883-1.891L302.135,142.367z M240.692,40.876c1.593-2.258,4.194-3.606,6.958-3.606
		c1.751,0,3.442,0.538,4.886,1.553c3.83,2.699,4.749,8.011,2.051,11.842l-34.326,48.7l-10.396-14.75L240.692,40.876z M212.907,13
		l2.082,41.724l0.041-0.002l-13.117,18.611L186.59,51.594V13H212.907z M122.312,68.886c-1.629,6.903-5.385,13.195-10.712,17.904
		V72.654L122.312,68.886z M111.6,111.221c8.625,6.387,13.692,16.312,13.812,27.007l-13.812-7.94V111.221z M138.183,145.57
		l0.202-5.036c0.648-16.14-6.871-31.298-20.115-40.547l-1.245-0.869c11.153-8.251,18.212-21.204,19.089-35.086l5.316-1.87
		l34.176,48.487L147.3,150.811L138.183,145.57z M163.126,180.426c-2.698,3.83-8.011,4.749-11.843,2.05
		c-3.83-2.698-4.75-8.011-2.051-11.842l34.328-48.703l10.396,14.75L163.126,180.426z M240.415,296.746l2.419,25.398l-13.451,34.972
		c-0.32,0.833-0.466,1.723-0.427,2.614l2.87,66.358l-58.835,4.871l13.493-261.109l15.425-21.886l19.059,27.039L226.2,296
		c0.115,2.658,1.838,4.977,4.35,5.855c2.51,0.877,5.304,0.136,7.049-1.871L240.415,296.746z M252.538,182.476L252.538,182.476
		c-3.832,2.7-9.144,1.78-11.843-2.051l-91.461-129.76c-1.308-1.856-1.815-4.11-1.428-6.346c0.387-2.237,1.623-4.189,3.478-5.497
		c1.449-1.022,3.142-1.555,4.879-1.555c0.487,0,0.978,0.042,1.468,0.127c2.237,0.387,4.189,1.622,5.497,3.478l91.461,129.76
		C257.289,174.462,256.369,179.775,252.538,182.476z"/>
	<path d="M192.391,304.958c-3.591-0.18-6.641,2.571-6.827,6.156l-5.403,104.551c-0.186,3.585,2.571,6.642,6.156,6.827
		c0.114,0.006,0.228,0.009,0.341,0.009c3.436,0,6.307-2.694,6.486-6.165l5.403-104.551
		C198.733,308.2,195.976,305.144,192.391,304.958z"/>
	<path d="M193.845,276.818c-3.581-0.184-6.642,2.571-6.827,6.156l-0.561,10.852c-0.186,3.585,2.571,6.642,6.156,6.827
		c0.114,0.006,0.228,0.009,0.341,0.009c3.436,0,6.307-2.694,6.486-6.165l0.561-10.852
		C200.187,280.06,197.431,277.003,193.845,276.818z"/>
	<path d="M215.784,342.89c-3.587,0.133-6.388,3.148-6.255,6.736l0.32,8.658c0.13,3.506,3.012,6.26,6.491,6.26
		c0.081,0,0.163-0.001,0.245-0.004c3.587-0.133,6.388-3.148,6.255-6.736l-0.32-8.658
		C222.386,345.558,219.371,342.764,215.784,342.89z"/>
	<path d="M215.379,338.552c0.081,0,0.163-0.001,0.245-0.004c3.587-0.133,6.388-3.148,6.255-6.736l-3.945-106.699
		c-0.133-3.587-3.152-6.382-6.736-6.255c-3.587,0.133-6.388,3.148-6.255,6.736l3.945,106.699
		C209.018,335.798,211.9,338.552,215.379,338.552z"/>
</g>
<g>
</g>
<g>
</g>
<g>
</g>
<g>
</g>
<g>
</g>
<g>
</g>
<g>
</g>
<g>
</g>
<g>
</g>
<g>
</g>
<g>
</g>
<g>
</g>
<g>
</g>
<g>
</g>
<g>
</g>
</svg>
