<?xml version="1.0" encoding="iso-8859-1"?>
<!-- Generator: Adobe Illustrator 18.0.0, SVG Export Plug-In . SVG Version: 6.00 Build 0)  -->
<!DOCTYPE svg PUBLIC "-//W3C//DTD SVG 1.1//EN" "http://www.w3.org/Graphics/SVG/1.1/DTD/svg11.dtd">
<svg version="1.1" id="Capa_1" xmlns="http://www.w3.org/2000/svg" xmlns:xlink="http://www.w3.org/1999/xlink" x="0px" y="0px"
	 viewBox="0 0 399.98 399.98" style="enable-background:new 0 0 399.98 399.98;" xml:space="preserve">
<path d="M333.615,306.483L290.617,30.581c-0.264-1.694-1.187-3.215-2.566-4.232l-34.04-25.082c-1.571-1.157-3.579-1.547-5.47-1.063
	l-69.872,17.916c-0.939,0.241-1.813,0.689-2.557,1.311L88.324,92.885c-1.32,1.104-2.148,2.687-2.302,4.401L66.315,315.859
	c-0.219,2.428,0.939,4.775,3,6.077l121.827,77.038c1.048,0.663,2.253,1.006,3.474,1.006c0.462,0,0.927-0.049,1.386-0.149
	l98.537-21.499c1.872-0.408,3.468-1.622,4.363-3.317l34.04-64.497C333.594,309.281,333.83,307.866,333.615,306.483z
	 M294.132,267.086l21.078,5.723l4.601,29.523l-37.328,7.466L294.132,267.086z M292.25,253.104l-25.177-16.291l15.4-40.038
	l18.54-15.064l12.005,77.032L292.25,253.104z M276.552,184.835l-27.43-17.324l-2.658-25.25l46.637-11.312l5.594,35.895
	L276.552,184.835z M251.481,127.667l16.628-33.255l16.475-18.124l6.51,41.771L251.481,127.667z M282.012,59.79l-19.939,21.935
	l-20.435-17.029l37.62-22.572L282.012,59.79z M242.389,49.085l11.035-32.102l19.061,14.044L242.389,49.085z M225.185,59.144
	L157.56,91.548l27.386-61.617l55.142-14.139L225.185,59.144z M140.497,97.929l-32.574-4.493l55.038-46.052L140.497,97.929z
	 M150.705,109.247l78.787-37.752l25.087,20.906l-20.988,41.976c-0.554,1.109-0.78,2.354-0.65,3.587l3.583,34.04
	c0.208,1.979,1.311,3.753,2.994,4.815l29.529,18.65l-16.001,41.601c-1.104,2.87-0.045,6.12,2.536,7.791l26.467,17.125
	l-13.479,49.425l-129.773-8.213L150.705,109.247z M128.949,316.183l39.525,53.077L91.682,320.7L128.949,316.183z M145.505,316.65
	l123.297,7.804l15.681,42.767l-87.158,19.016L145.505,316.65z M282.159,323.12l32.904-6.581l-20.839,39.485L282.159,323.12z
	 M98.357,105.24l39.237,5.412l-11.84,192.823l-45.771,5.548L98.357,105.24z"/>
<g>
</g>
<g>
</g>
<g>
</g>
<g>
</g>
<g>
</g>
<g>
</g>
<g>
</g>
<g>
</g>
<g>
</g>
<g>
</g>
<g>
</g>
<g>
</g>
<g>
</g>
<g>
</g>
<g>
</g>
</svg>
